<?xml version="1.0" encoding="utf-8"?>
<svg viewBox="95.25 50.195 149.5 149.6101" xmlns="http://www.w3.org/2000/svg">
  <defs>
    <filter id="1258788e-df59-4439-87a2-ccfac287ffe1" filterUnits="userSpaceOnUse">
      <feColorMatrix type="matrix" values="0 0 0 0 0.99609375  0 0 0 0 0.99609375  0 0 0 0 0.99609375  0 0 0 1 0"/>
    </filter>
    <linearGradient x1="0" y1="1" x2="0" y2="0" id="eLE7rHV85SsDcODKPxam_">
      <stop offset="0" stop-color="#ffecd2"/>
      <stop offset="1" stop-color="#fcb69f"/>
    </linearGradient>
    <linearGradient x1="0" y1="1" x2="0" y2="0" id="93bd626b-1f5b-45ac-ba53-ef715fd0af4d">
      <stop offset="0" stop-color="#ffecd2"/>
      <stop offset="1" stop-color="#fcb69f"/>
    </linearGradient>
  </defs>
  <mask id="9e6fbe22-a5d4-4693-9e92-7f16edcd2cb7">
    <g mask="url(#4ab93326-db10-48ba-a295-0ad30e75ffa7)" filter="url(#1258788e-df59-4439-87a2-ccfac287ffe1)">
      <g>
        <rect fill="#ffecd2" fill-opacity="0" stroke-width="2" x="0" y="0" width="137.5" height="137.61008807045636" class="image-rect"/>
        <svg x="0" y="0" width="137.5" height="137.61008807045636" class="image-svg-svg primary" style="overflow: visible;">
          <svg fill="#000000" xmlns="http://www.w3.org/2000/svg" viewBox="5.015323638916016 4.975105285644531 89.96699523925781 90.03902435302734" x="0px" y="0px">
            <path d="m 49.998819,4.9751055 c -24.821867,0 -44.9834934,20.1710675 -44.9834934,45.0195135 0,24.848447 20.1616264,45.019514 44.9834934,45.019514 24.821866,0 44.983493,-20.171067 44.983493,-45.019514 0,-24.848446 -20.161627,-45.0195135 -44.983493,-45.0195135 z m 0,3.0318545 c 23.226908,0 42.019464,18.787331 42.019464,41.987659 0,23.200328 -18.792556,41.987659 -42.019464,41.987659 -23.226908,0 -42.0194648,-18.787331 -42.0194648,-41.987659 0,-23.200328 18.7925568,-41.987659 42.0194648,-41.987659 z" color="#000"/>
          </svg>
        </svg>
      </g>
    </g>
  </mask>
  <g class="iconmbgsvg" transform="matrix(1, 0, 0, 1, 101.25, 56.19495391845703)">
    <g fill="#ffecd2">
      <g mask="url(#9e6fbe22-a5d4-4693-9e92-7f16edcd2cb7)">
        <g>
          <svg x="0" y="0" width="137.5" height="137.61008807045636" class="image-svg-svg primary" style="overflow: visible;">
            <svg fill="#000000" xmlns="http://www.w3.org/2000/svg" viewBox="5.015323638916016 4.975105285644531 89.96699523925781 90.03902435302734" x="0px" y="0px">
              <path d="m 49.998819,4.9751055 c -24.821867,0 -44.9834934,20.1710675 -44.9834934,45.0195135 0,24.848447 20.1616264,45.019514 44.9834934,45.019514 24.821866,0 44.983493,-20.171067 44.983493,-45.019514 0,-24.848446 -20.161627,-45.0195135 -44.983493,-45.0195135 z m 0,3.0318545 c 23.226908,0 42.019464,18.787331 42.019464,41.987659 0,23.200328 -18.792556,41.987659 -42.019464,41.987659 -23.226908,0 -42.0194648,-18.787331 -42.0194648,-41.987659 0,-23.200328 18.7925568,-41.987659 42.0194648,-41.987659 z" color="#000"/>
            </svg>
          </svg>
        </g>
        <rect width="149.5" height="149.61009216308594" transform="translate(-6, -6)" style="pointer-events:none;" fill="url(#eLE7rHV85SsDcODKPxam_)"/>
      </g>
      <g transform="translate(28.93000030517578,41.93004608154297)">
        <g class="tp-name" fill="url(#93bd626b-1f5b-45ac-ba53-ef715fd0af4d)">
          <g transform="scale(1)">
            <g>
              <path d="M4.13 0L14.4 0 14.4-56.25 4.13-56.25ZM14.4-28.05C31.95-6.22 48.75 1.5 63.9 1.5 71.92 1.5 78.75 0.38 83.77-3.15L78.83-11.47C74.47-8.92 70.27-7.95 63.9-7.95 52.5-7.95 42.6-11.85 27.15-28.05L48.52-56.25 36.38-56.25ZM50.32-17.4L80.4-17.4 80.4-26.85 66.08-26.85 81.75-56.25 51.15-56.25 51.15-46.8 66.08-46.8Z" transform="translate(-4.130000114440918, 56.25)"/>
            </g>
          </g>
        </g>
      </g>
    </g>
  </g>
</svg>